<?xml version="1.0" encoding="UTF-8"?>
<svg id="Layer_2" data-name="Layer 2" xmlns="http://www.w3.org/2000/svg" viewBox="0 0 512.12 384.06">
  <defs>
    <style>
      .cls-1 {
        fill: #242d89;
      }

      .cls-2 {
        fill: #3d4beb;
      }

      .cls-3 {
        fill: #313cba;
      }
    </style>
  </defs>
  <polygon class="cls-2" points="146.35 384 73.18 384 0 0 73.18 0 109.74 191.87 146.35 384"/>
  <polygon class="cls-3" points="219.41 .12 182.88 192.06 146.35 384 109.74 191.87 146.23 .12 219.41 .12"/>
  <polygon class="cls-1" points="256.1 192.28 256.08 192.24 219.53 384 182.88 192.06 219.41 .12 256.05 192 256.08 192.19 256.1 192.28"/>
  <polygon class="cls-2" points="292.71 384 292.59 384 292.65 383.69 292.71 384"/>
  <polygon class="cls-2" points="365.77 0 329.17 192.08 310.87 288.06 292.65 383.69 292.59 384 219.53 384 256.08 192.24 256.1 192.28 256.08 192.19 256.12 192 292.71 0 365.77 0"/>
  <polygon class="cls-2" points="256.08 192.19 256.1 192.28 256.08 192.24 256.08 192.19"/>
  <polygon class="cls-2" points="365.89 0 329.26 192.24 310.96 288.22 292.71 384 292.59 384 292.65 383.69 310.87 288.06 329.17 192.08 365.77 0 365.89 0"/>
  <polygon class="cls-2" points="256.12 192 256.08 192.19 256.1 192.28 256.08 192.24 255.94 192 256.12 192"/>
  <polygon class="cls-2" points="329.17 192.08 329.26 192.24 310.96 288.22 310.87 288.06 329.17 192.08"/>
  <polygon class="cls-2" points="438.94 384.06 365.77 384.06 365.74 384 438.91 384 438.94 384.06"/>
  <polygon class="cls-2" points="512.12 0 438.94 384 365.77 384 384.05 288.07 438.94 0 512.12 0"/>
  <polygon class="cls-3" points="384.05 288.07 365.77 384 365.74 384 310.96 288.22 329.26 192.24 384.05 288.07"/>
  <polygon class="cls-2" points="365.89 0 329.26 192.24 310.96 288.22 292.71 384 292.59 384 292.65 383.69 310.87 288.06 329.17 192.08 365.77 0 365.89 0"/>
</svg>