<?xml version="1.0" encoding="UTF-8"?>
<svg id="Layer_2"  shape-rendering =" crispEdges " data-name="Layer 2" xmlns="http://www.w3.org/2000/svg" viewBox="0 0 512 380">
  <defs>
    <style>
      .cls-1 {
        fill: #242d89;
      }

      .cls-2 {
        fill: #3d4beb;
      }

      .cls-3 {
        fill: #313cba;
      }
    </style>
  </defs>
  <polygon class="cls-2" points="146.32 379.94 73.16 379.94 0 0 73.16 0 109.71 189.84 146.32 379.94"/>
  <polygon class="cls-3" points="219.36 .12 182.84 190.03 146.32 379.94 109.71 189.84 146.2 .12 219.36 .12"/>
  <polygon class="cls-1" points="256.04 190.25 256.02 190.21 219.48 379.94 182.84 190.03 219.36 .12 255.99 189.97 256.02 190.16 256.04 190.25"/>
  <polygon class="cls-2" points="292.64 379.94 292.52 379.94 292.58 379.63 292.64 379.94"/>
  <polygon class="cls-2" points="365.68 0 329.09 190.05 310.8 285.01 292.58 379.63 292.52 379.94 219.48 379.94 256.02 190.21 256.04 190.25 256.02 190.16 256.06 189.97 292.64 0 365.68 0"/>
  <polygon class="cls-2" points="256.02 190.16 256.04 190.25 256.02 190.21 256.02 190.16"/>
  <polygon class="cls-2" points="365.8 0 329.18 190.21 310.89 285.17 292.64 379.94 292.52 379.94 292.58 379.63 310.8 285.01 329.09 190.05 365.68 0 365.8 0"/>
  <polygon class="cls-2" points="256.06 189.97 256.02 190.16 256.04 190.25 256.02 190.21 255.88 189.97 256.06 189.97"/>
  <polygon class="cls-2" points="329.09 190.05 329.18 190.21 310.89 285.17 310.8 285.01 329.09 190.05"/>
  <polygon class="cls-2" points="438.84 380 365.68 380 365.65 379.94 438.81 379.94 438.84 380"/>
  <polygon class="cls-2" points="512 0 438.84 379.94 365.68 379.94 383.96 285.02 438.84 0 512 0"/>
  <polygon class="cls-3" points="383.96 285.02 365.68 379.94 365.65 379.94 310.89 285.17 329.18 190.21 383.96 285.02"/>
  <polygon class="cls-2" points="365.8 0 329.18 190.21 310.89 285.17 292.64 379.94 292.52 379.94 292.58 379.63 310.8 285.01 329.09 190.05 365.68 0 365.8 0"/>
</svg>